<?xml version="1.0" encoding="UTF-8" standalone="no"?>
<svg
   xml:space="preserve"
   style="enable-background:new 0 0 160.5 120.4;"
   viewBox="0 0 160.5 120.4"
   y="0px"
   x="0px"
   sodipodi:docname="Kdenlive-logo.svg"
   inkscape:version="1.1 (1:1.1+202105261518+ce6663b3b7)"
   inkscape:export-ydpi="90"
   inkscape:export-xdpi="90"
   inkscape:export-filename="/home/farid/Gunga/Kdenlive/kdenlive-logo-manual.png"
   id="svg4446"
   version="1.1"
   xmlns:inkscape="http://www.inkscape.org/namespaces/inkscape"
   xmlns:sodipodi="http://sodipodi.sourceforge.net/DTD/sodipodi-0.dtd"
   xmlns="http://www.w3.org/2000/svg"
   xmlns:svg="http://www.w3.org/2000/svg"
   xmlns:rdf="http://www.w3.org/1999/02/22-rdf-syntax-ns#"
   xmlns:cc="http://creativecommons.org/ns#"
   xmlns:dc="http://purl.org/dc/elements/1.1/"><metadata
     id="metadata855">
  <rdf:RDF>
    <cc:Work
   rdf:about="">
      <dc:format>image/svg+xml</dc:format>
      <dc:type
   rdf:resource="http://purl.org/dc/dcmitype/StillImage" />
    </cc:Work>
  </rdf:RDF>
</metadata><defs
     id="defs853">
			

			

		
			

			

			

			

			

			

			

			

			

		</defs><style
     id="style833"
     type="text/css">
	.st0{fill:#83B9F5;}
	.st1{fill:#F38577;}
	.st2{fill:#527EB2;}
</style><sodipodi:namedview
     inkscape:document-rotation="0"
     units="px"
     showguides="true"
     showgrid="false"
     showborder="true"
     pagecolor="#ffffff"
     inkscape:zoom="3.959798"
     inkscape:window-y="27"
     inkscape:window-x="72"
     inkscape:window-width="1848"
     inkscape:window-maximized="1"
     inkscape:window-height="1016"
     inkscape:pageshadow="2"
     inkscape:pageopacity="0.0"
     inkscape:guide-bbox="true"
     inkscape:document-units="px"
     inkscape:cy="54.16943"
     inkscape:cx="75.88771"
     inkscape:current-layer="layer1"
     id="base"
     borderopacity="1.0"
     bordercolor="#666666"
     inkscape:pagecheckerboard="0">
	</sodipodi:namedview><g
     inkscape:label="Camada 1"
     inkscape:groupmode="layer"
     transform="translate(0,75.637839)"
     id="layer1"><path
       id="path5999-1-9"
       style="stroke-width:0.893944;fill:#83b9f5;fill-opacity:1"
       class="st0"
       d="M 59.416016 17.638672 L 59.416016 24.341797 L 68.623047 24.341797 L 68.623047 17.638672 L 59.416016 17.638672 z M 52.175781 28.455078 L 52.175781 35.158203 L 68.712891 35.158203 L 68.712891 28.455078 L 52.175781 28.455078 z M 32.777344 39.271484 L 32.777344 45.976562 L 68.623047 45.976562 L 68.623047 39.271484 L 32.777344 39.271484 z M 13.021484 49.998047 L 13.021484 56.703125 L 68.623047 56.703125 L 68.623047 49.998047 L 13.021484 49.998047 z M -0.03125 60.814453 L -0.03125 67.519531 L 68.623047 67.519531 L 68.623047 60.814453 L -0.03125 60.814453 z M 21.691406 71.542969 L 21.691406 78.246094 L 68.623047 78.246094 L 68.623047 71.542969 L 21.691406 71.542969 z M 40.822266 82.359375 L 40.822266 89.064453 L 68.712891 89.064453 L 68.712891 82.359375 L 40.822266 82.359375 z M 33.3125 93.085938 L 33.3125 99.791016 L 68.712891 99.791016 L 68.712891 93.085938 L 33.3125 93.085938 z M 51.548828 103.36719 L 51.548828 110.07031 L 68.623047 110.07031 L 68.623047 103.36719 L 51.548828 103.36719 z "
       transform="translate(0,-75.637839)" /><path
       id="path6019-4-61"
       style="stroke-width:3.12615;fill:#f38577;fill-opacity:1"
       class="st1"
       d="m 67.587866,-75.514751 12.503906,19.302734 V 44.842672 h 3.751953 V -56.153423 l 12.816406,-19.361328 z" /><path
       d="m 97.620533,-58.015484 c -1.334457,0 -2.490987,1.067566 -2.490987,2.402023 v 87.807313 c 0,1.957205 2.224096,3.113735 3.825445,1.957205 L 159.4504,-9.7081176 c 1.33446,-0.9786024 1.33446,-2.9358064 0,-3.9144094 L 98.954991,-57.481701 c -0.355855,-0.355856 -0.800675,-0.533783 -1.334458,-0.533783 z"
       class="st2"
       sodipodi:nodetypes="cccccccc"
       inkscape:connector-curvature="0"
       id="path6023-2-7"
       style="stroke-width:0.889638;fill:#527eb2;fill-opacity:1" /></g></svg>
